<svg width="222" height="50" viewBox="0 0 222 50" fill="none" xmlns="http://www.w3.org/2000/svg">
<g clip-path="url(#clip0_4492_1960)">
<path d="M83.7307 23.751C86.7668 19.2628 87.6299 15.3838 86.2388 13.9927C85.8022 13.5662 85.1421 13.3428 84.279 13.3428C82.3801 13.3428 79.5775 14.409 76.4805 16.5008C77.7701 17.4959 79.0597 18.623 80.329 19.8923C81.5983 21.1616 82.7355 22.4512 83.7205 23.7408L83.7307 23.751Z" fill="white"/>
<path d="M70.146 19.9021C71.4152 18.6328 72.7049 17.4955 73.9945 16.5105C70.8974 14.4187 68.0948 13.3525 66.1959 13.3525C65.3429 13.3525 64.6728 13.5658 64.2361 14.0024C62.845 15.3936 63.7081 19.2624 66.7442 23.7607C67.7394 22.4711 68.8767 21.1815 70.1358 19.9122L70.146 19.9021Z" fill="white"/>
<path d="M82.8354 24.9998C81.8403 23.6695 80.6624 22.2987 79.3017 20.938C77.941 19.5773 76.5702 18.3994 75.24 17.4043C73.9098 18.3994 72.5389 19.5773 71.1782 20.938C69.8176 22.2987 68.6397 23.6695 67.6445 24.9998C68.6397 26.33 69.8176 27.7008 71.1782 29.0615C72.5389 30.4222 73.9098 31.6001 75.24 32.5952C76.5702 31.6001 77.941 30.4222 79.3017 29.0615C80.6624 27.7008 81.8403 26.33 82.8354 24.9998Z" fill="white"/>
<path d="M66.756 26.249C63.7198 30.7372 62.8567 34.6162 64.2478 36.0073C65.639 37.3985 69.5078 36.5354 74.0062 33.4891C72.7166 32.4939 71.427 31.3567 70.1577 30.0975C68.8884 28.8282 67.7511 27.5386 66.7661 26.249H66.756Z" fill="white"/>
<path d="M52.5269 0H12.7422C5.83723 0 0.242188 5.59505 0.242188 12.5V37.5C0.242188 44.405 5.83723 50 12.7422 50H87.7422C94.6471 50 100.242 44.405 100.242 37.5V0H52.5269ZM50.2422 48.5378H12.7422C6.65974 48.5378 1.70441 43.5825 1.70441 37.5V12.5C1.70441 6.41755 6.65974 1.46223 12.7422 1.46223H50.2422V48.5378ZM87.2751 37.0329C86.5541 37.7539 85.5184 38.0991 84.2897 38.0991C81.8628 38.0991 78.6236 36.7689 75.2422 34.3928C71.8608 36.7689 68.6216 38.0991 66.1947 38.0991C64.9558 38.0991 63.9302 37.7539 63.2093 37.0329C61.0667 34.8903 62.2548 30.1076 65.8393 25C62.2548 19.8924 61.0667 15.1097 63.2093 12.9671C65.3519 10.8245 70.1346 12.0126 75.2422 15.5971C80.3498 12.0126 85.1325 10.8245 87.2751 12.9671C89.4177 15.1097 88.2296 19.8924 84.6451 25C88.2296 30.1076 89.4177 34.8903 87.2751 37.0329Z" fill="white"/>
<path d="M80.3407 30.0975C79.0714 31.3668 77.7818 32.5041 76.4922 33.4891C80.9804 36.5252 84.8594 37.3883 86.2505 36.0073C87.6417 34.6162 86.7785 30.7474 83.7424 26.249C82.7473 27.5386 81.61 28.8282 80.3508 30.0975H80.3407Z" fill="white"/>
<path d="M10.7926 15.2113C9.45222 16.8867 8.85312 19.1715 9.26945 21.0297C10.3458 25.8429 14.8137 26.6146 18.0936 27.0411C20.6829 27.3762 23.1606 27.8534 23.0997 30.1585C23.0286 32.5549 20.3275 33.1438 18.5505 33.1438C13.9303 33.1438 13.778 29.732 13.778 29.732H8.8125C8.88358 31.0114 9.26945 33.0728 10.8535 34.8396C12.5798 36.7791 15.1793 37.7539 18.5607 37.7539C21.1602 37.7539 23.5261 36.9111 25.2118 35.4083V37.4696H29.8421V31.5699L31.477 29.7726L36.1582 37.4696H41.5501L34.7365 26.2084L41.5501 18.745H35.5489L29.8421 25.0001V12.5001H25.2118V15.526C25.0595 15.3331 24.897 15.1402 24.7244 14.9472C23.0387 13.1601 20.6119 12.2563 17.5046 12.2563C13.9201 12.2563 11.8791 13.8607 10.7926 15.2113ZM17.5859 16.5923C19.6675 16.5923 21.7491 17.0594 22.5412 19.9533H25.2016V24.3806C21.8811 21.6491 14.6716 23.3652 13.8998 19.9635C13.4937 18.1763 15.2707 16.5923 17.5859 16.5923Z" fill="white"/>
<path d="M112.038 34.3421C112.352 34.4437 112.708 34.4944 113.124 34.4944C113.642 34.4944 114.058 34.3421 114.373 34.0273C114.688 33.7125 114.891 33.2962 114.993 32.8393L108.402 18.8872H112.789L117.013 28.8994L120.72 18.8872H124.893L118.953 32.6362C118.171 34.4538 117.369 35.8043 116.485 36.6573C115.602 37.5407 114.647 37.9774 113.581 37.9774C113.216 37.9774 112.931 37.9774 112.698 37.9266C112.434 37.8961 112.231 37.8454 112.048 37.7946L111.55 37.6423C111.418 37.5915 111.286 37.5407 111.164 37.5103V33.9867C111.398 34.139 111.682 34.271 112.017 34.3523L112.038 34.3421Z" fill="white"/>
<path d="M132.043 32.2707C131.779 32.3519 131.495 32.4027 131.19 32.4737C130.875 32.5245 130.54 32.5753 130.205 32.6058C129.87 32.6565 129.535 32.6565 129.22 32.6565C128.418 32.6565 127.738 32.5753 127.118 32.4534C126.519 32.3011 126.001 32.0879 125.585 31.7833C125.169 31.4685 124.854 31.0521 124.651 30.5343C124.448 30.0367 124.336 29.4173 124.336 28.6963V23.7207H127.91V27.9957C127.91 28.3815 127.961 28.7268 128.063 28.9502C128.144 29.2142 128.296 29.4173 128.499 29.5696C128.702 29.7219 128.936 29.8336 129.251 29.8844C129.565 29.9352 129.921 29.9656 130.337 29.9656C130.957 29.9656 131.424 29.9149 131.789 29.8133C132.155 29.6813 132.439 29.5493 132.642 29.4274V23.7207H136.217V37.5205H132.642V32.0777C132.49 32.1285 132.277 32.2097 132.023 32.2808L132.043 32.2707Z" fill="white"/>
<path d="M150.088 35.7945C150.119 36.0585 150.19 36.2921 150.271 36.4139C150.352 36.5967 150.423 36.6983 150.535 36.7795C150.637 36.8607 150.718 36.9115 150.85 36.9318V37.5005H146.88L146.676 36.8506C146.575 36.5866 146.544 36.2819 146.544 35.8859L145.742 36.6881C145.458 36.9217 145.174 37.1247 144.839 37.3075C144.503 37.4903 144.138 37.6426 143.701 37.7442C143.265 37.8457 142.747 37.8965 142.148 37.8965C141.549 37.8965 140.96 37.8152 140.432 37.6325C139.914 37.4497 139.477 37.1654 139.081 36.8303C138.715 36.4647 138.411 36.0281 138.198 35.4797C137.995 34.9619 137.883 34.3425 137.883 33.6418C137.883 33.0732 137.964 32.5553 138.147 32.0577C138.33 31.5602 138.583 31.154 138.898 30.7884C139.233 30.4229 139.629 30.1182 140.086 29.8847C140.553 29.6207 141.071 29.4684 141.67 29.3871L145.174 28.8693C145.306 28.8388 145.438 28.8388 145.59 28.788C145.742 28.7576 145.874 28.7068 146.006 28.6052C146.138 28.524 146.24 28.4225 146.321 28.2905C146.402 28.1381 146.453 27.9554 146.453 27.7218C146.453 27.4883 146.402 27.2852 146.352 27.1024C146.27 26.8993 146.148 26.7368 145.986 26.6048C145.803 26.4525 145.6 26.3408 145.316 26.2697C145.031 26.1885 144.666 26.1682 144.25 26.1682C143.752 26.1682 143.397 26.219 143.112 26.3002C142.798 26.4018 142.564 26.5642 142.412 26.7165C142.229 26.8993 142.097 27.1024 142.026 27.3156L141.873 28.0671H138.299C138.299 27.9148 138.33 27.6812 138.38 27.3664C138.431 27.0821 138.533 26.747 138.695 26.3814C138.827 26.0464 139.061 25.6808 139.315 25.3152C139.579 24.9497 139.914 24.6146 140.381 24.2998C140.797 24.0155 141.345 23.7515 141.965 23.5687C142.584 23.3859 143.315 23.2844 144.199 23.2539C145.417 23.2539 146.433 23.3859 147.205 23.6195C147.956 23.8835 148.555 24.2186 148.992 24.6044C149.408 25.0208 149.692 25.4574 149.845 25.955C149.977 26.4525 150.048 26.9399 150.048 27.4375V34.7486C150.048 35.165 150.078 35.5 150.129 35.7641L150.088 35.7945ZM145.783 31.0728C145.549 31.1743 145.265 31.2758 144.899 31.3368L143.945 31.5195C143.529 31.6008 143.163 31.6719 142.858 31.7836C142.544 31.8851 142.29 32.0171 142.077 32.1694C141.873 32.3522 141.711 32.5553 141.609 32.7888C141.508 33.0224 141.457 33.3067 141.457 33.6723C141.457 33.9566 141.508 34.2206 141.589 34.4237C141.691 34.6572 141.823 34.8096 142.005 34.972C142.158 35.104 142.341 35.236 142.554 35.2868C142.787 35.368 143.021 35.3883 143.285 35.3883C143.417 35.3883 143.6 35.3579 143.803 35.3376C144.006 35.3071 144.219 35.2563 144.473 35.1853C144.707 35.0837 144.94 34.9822 145.174 34.8197C145.407 34.6877 145.61 34.4846 145.793 34.2511C145.996 34.0175 146.159 33.7332 146.26 33.3676C146.362 33.0325 146.443 32.6365 146.443 32.1796V30.7783C146.24 30.9103 146.006 31.0118 145.793 31.0931L145.783 31.0728Z" fill="white"/>
<path d="M160.099 27.6298C159.998 27.3455 159.835 27.112 159.663 26.9292C159.459 26.7261 159.226 26.5941 158.962 26.4926C158.678 26.4113 158.342 26.3606 157.946 26.3606C157.347 26.3606 156.88 26.4926 156.525 26.7769C156.159 27.0612 155.875 27.3963 155.692 27.8126C155.489 28.2493 155.377 28.7164 155.306 29.2139C155.256 29.7115 155.205 30.1684 155.205 30.6152C155.205 31.062 155.235 31.5494 155.286 32.0368C155.337 32.5547 155.438 32.9913 155.652 33.4077C155.834 33.824 156.088 34.1896 156.484 34.4434C156.85 34.7277 157.337 34.8597 157.967 34.8597C158.383 34.8597 158.749 34.7785 159.053 34.5957C159.338 34.4434 159.602 34.2302 159.805 33.9966C160.008 33.7326 160.17 33.4788 160.272 33.1944C160.353 32.9304 160.404 32.6766 160.404 32.443H164.141C164.141 32.6766 164.11 32.9609 164.039 33.3264C163.938 33.7123 163.805 34.0779 163.623 34.4942C163.44 34.8801 163.186 35.2964 162.892 35.7127C162.557 36.129 162.191 36.4946 161.724 36.7992C161.257 37.1343 160.739 37.3983 160.119 37.6014C159.5 37.8045 158.769 37.9162 157.967 37.9162C156.931 37.9162 155.997 37.7639 155.195 37.4491C154.392 37.114 153.712 36.6469 153.174 36.0275C152.626 35.4081 152.209 34.6567 151.925 33.7225C151.641 32.8187 151.488 31.7728 151.488 30.6152C151.488 29.4576 151.641 28.3813 151.955 27.4775C152.27 26.5941 152.707 25.8224 153.275 25.1928C153.844 24.5734 154.524 24.1063 155.327 23.7915C156.109 23.4564 157.012 23.2939 157.977 23.2939C158.393 23.2939 158.83 23.3447 159.297 23.3955C159.734 23.4463 160.18 23.5783 160.617 23.7306C161.054 23.9134 161.47 24.1164 161.886 24.3805C162.272 24.6445 162.638 24.9796 162.973 25.3654C163.288 25.7513 163.541 26.2184 163.755 26.7363C163.958 27.2541 164.09 27.8736 164.141 28.5742H160.404C160.323 28.2086 160.251 27.8736 160.119 27.6197L160.099 27.6298Z" fill="white"/>
<path d="M176.609 23.7104V26.6146H172.435V37.5102H168.861V26.6146H164.688V23.7104H176.619H176.609Z" fill="white"/>
<path d="M186.561 28.6963V23.7207H190.135V37.5205H186.561V31.6106H181.301V37.5205H177.727V23.7207H181.301V28.6963H186.561Z" fill="white"/>
<path d="M196.164 32.2198L201.201 23.7104H204.958V37.5102H201.383V29.1836H201.333L196.459 37.5102H192.539V23.7104H196.113V32.2198H196.164Z" fill="white"/>
<path d="M216.151 23.7103H220.923L215.217 29.4374L221.157 37.5H216.486L212.444 31.6612L210.992 33.1437V37.5H207.418V23.7002H210.992V28.9398L216.151 23.7002V23.7103Z" fill="white"/>
</g>
<defs>
<clipPath id="clip0_4492_1960">
<rect width="221" height="50" fill="white" transform="translate(0.5)"/>
</clipPath>
</defs>
</svg>
